G04 #@! TF.FileFunction,Soldermask,Top*
%FSLAX46Y46*%
G04 Gerber Fmt 4.6, Leading zero omitted, Abs format (unit mm)*
G04 Created by KiCad (PCBNEW 4.0.7) date Thursday, 09. August 2018 'u49' 18:49:35*
%MOMM*%
%LPD*%
G01*
G04 APERTURE LIST*
%ADD10C,0.100000*%
%ADD11C,0.150000*%
%ADD12R,1.700000X1.400000*%
%ADD13C,6.000000*%
%ADD14R,1.400000X1.700000*%
%ADD15R,1.598880X1.799540*%
%ADD16R,1.400760X1.799540*%
%ADD17R,0.650000X1.050000*%
%ADD18R,0.650000X1.100000*%
%ADD19R,1.050000X0.650000*%
%ADD20R,1.100000X0.650000*%
%ADD21R,5.500000X5.500000*%
%ADD22R,0.700000X1.150000*%
%ADD23R,0.700000X1.250000*%
%ADD24R,1.150000X0.700000*%
%ADD25R,1.250000X0.700000*%
%ADD26R,6.550000X6.550000*%
%ADD27C,2.398980*%
%ADD28R,3.100020X1.901140*%
%ADD29C,4.210000*%
%ADD30R,1.924000X1.924000*%
%ADD31C,1.924000*%
%ADD32R,2.127200X2.127200*%
%ADD33O,2.127200X2.127200*%
%ADD34C,1.500000*%
%ADD35C,2.000000*%
%ADD36R,1.950000X1.000000*%
%ADD37R,2.432000X4.057600*%
%ADD38R,2.432000X1.416000*%
%ADD39R,4.057600X2.432000*%
%ADD40R,1.416000X2.432000*%
%ADD41R,1.700000X1.700000*%
%ADD42C,1.700000*%
G04 APERTURE END LIST*
D10*
D11*
X80000000Y-150000000D02*
X80000000Y-30000000D01*
X200000000Y-150000000D02*
X80000000Y-150000000D01*
X200000000Y-30000000D02*
X200000000Y-150000000D01*
X80000000Y-30000000D02*
X200000000Y-30000000D01*
D12*
X186000000Y-69700000D03*
X186000000Y-67900000D03*
X188000000Y-69700000D03*
X188000000Y-67900000D03*
X108000000Y-87100000D03*
X108000000Y-88900000D03*
D13*
X85000000Y-45800000D03*
X195000000Y-45800000D03*
X195000000Y-145000000D03*
X85000000Y-145000000D03*
D12*
X136000000Y-87100000D03*
X136000000Y-88900000D03*
X136000000Y-70100000D03*
X136000000Y-71900000D03*
X132000000Y-90600000D03*
X132000000Y-92400000D03*
X132000000Y-73600000D03*
X132000000Y-75400000D03*
X120400000Y-106700000D03*
X120400000Y-108500000D03*
X117600000Y-105000000D03*
X117600000Y-103200000D03*
X126000000Y-83600000D03*
X126000000Y-85400000D03*
X126000000Y-66600000D03*
X126000000Y-68400000D03*
X126000000Y-90600000D03*
X126000000Y-92400000D03*
X126000000Y-73600000D03*
X126000000Y-75400000D03*
X122000000Y-87100000D03*
X122000000Y-88900000D03*
X122000000Y-70100000D03*
X122000000Y-71900000D03*
X117600000Y-106700000D03*
X117600000Y-108500000D03*
X118000000Y-90600000D03*
X118000000Y-92400000D03*
X118000000Y-73600000D03*
X118000000Y-75400000D03*
X114800000Y-99700000D03*
X114800000Y-101500000D03*
X111600000Y-101500000D03*
X111600000Y-99700000D03*
X112000000Y-83600000D03*
X112000000Y-85400000D03*
X112000000Y-66600000D03*
X112000000Y-68400000D03*
X111600000Y-103200000D03*
X111600000Y-105000000D03*
X112000000Y-90600000D03*
X112000000Y-92400000D03*
X112000000Y-73600000D03*
X112000000Y-75400000D03*
X108400000Y-103200000D03*
X108400000Y-105000000D03*
X108000000Y-70100000D03*
X108000000Y-71900000D03*
X104000000Y-90600000D03*
X104000000Y-92400000D03*
X104000000Y-73600000D03*
X104000000Y-75400000D03*
X102400000Y-108500000D03*
X102400000Y-106700000D03*
X108400000Y-101500000D03*
X108400000Y-99700000D03*
X105200000Y-99700000D03*
X105200000Y-101500000D03*
X98000000Y-83600000D03*
X98000000Y-85400000D03*
X98000000Y-66600000D03*
X98000000Y-68400000D03*
X103200000Y-116700000D03*
X103200000Y-114900000D03*
X101200000Y-114900000D03*
X101200000Y-116700000D03*
X98000000Y-90600000D03*
X98000000Y-92400000D03*
X98000000Y-73600000D03*
X98000000Y-75400000D03*
X94000000Y-87100000D03*
X94000000Y-88900000D03*
X94000000Y-70100000D03*
X94000000Y-71900000D03*
X90000000Y-90600000D03*
X90000000Y-92400000D03*
X90000000Y-73600000D03*
X90000000Y-75400000D03*
X114800000Y-103200000D03*
X114800000Y-105000000D03*
X105200000Y-103200000D03*
X105200000Y-105000000D03*
X103200000Y-113200000D03*
X103200000Y-111400000D03*
X102400000Y-105000000D03*
X102400000Y-103200000D03*
X99900000Y-107600000D03*
X99900000Y-109400000D03*
X84000000Y-83600000D03*
X84000000Y-85400000D03*
X84000000Y-66600000D03*
X84000000Y-68400000D03*
X84000000Y-90600000D03*
X84000000Y-92400000D03*
X84000000Y-73600000D03*
X84000000Y-75400000D03*
X126000000Y-87100000D03*
X126000000Y-88900000D03*
X126000000Y-70100000D03*
X126000000Y-71900000D03*
X112000000Y-87100000D03*
X112000000Y-88900000D03*
X112000000Y-70100000D03*
X112000000Y-71900000D03*
X98000000Y-87100000D03*
X98000000Y-88900000D03*
X98000000Y-70100000D03*
X98000000Y-71900000D03*
X84000000Y-87100000D03*
X84000000Y-88900000D03*
X84000000Y-70100000D03*
X84000000Y-71900000D03*
X134000000Y-90600000D03*
X134000000Y-92400000D03*
X134000000Y-73600000D03*
X134000000Y-75400000D03*
D14*
X133900000Y-83200000D03*
X132100000Y-83200000D03*
X133900000Y-66200000D03*
X132100000Y-66200000D03*
D12*
X136000000Y-90600000D03*
X136000000Y-92400000D03*
X136000000Y-73600000D03*
X136000000Y-75400000D03*
X130000000Y-90600000D03*
X130000000Y-92400000D03*
X130000000Y-73600000D03*
X130000000Y-75400000D03*
D14*
X128100000Y-83200000D03*
X129900000Y-83200000D03*
X128100000Y-66200000D03*
X129900000Y-66200000D03*
D12*
X128000000Y-90600000D03*
X128000000Y-92400000D03*
X128000000Y-73600000D03*
X128000000Y-75400000D03*
D14*
X130700000Y-105900000D03*
X132500000Y-105900000D03*
X127200000Y-107900000D03*
X129000000Y-107900000D03*
X123700000Y-109900000D03*
X125500000Y-109900000D03*
X127200000Y-109900000D03*
X129000000Y-109900000D03*
X123700000Y-111900000D03*
X125500000Y-111900000D03*
X119900000Y-99200000D03*
X121700000Y-99200000D03*
D12*
X120000000Y-90600000D03*
X120000000Y-92400000D03*
X120000000Y-73600000D03*
X120000000Y-75400000D03*
D14*
X119900000Y-83200000D03*
X118100000Y-83200000D03*
X119900000Y-66200000D03*
X118100000Y-66200000D03*
D12*
X122000000Y-90600000D03*
X122000000Y-92400000D03*
X122000000Y-73600000D03*
X122000000Y-75400000D03*
D14*
X129000000Y-111900000D03*
X127200000Y-111900000D03*
X125500000Y-115900000D03*
X123700000Y-115900000D03*
X129000000Y-115900000D03*
X127200000Y-115900000D03*
D12*
X116600000Y-94300000D03*
X116600000Y-96100000D03*
X116000000Y-90600000D03*
X116000000Y-92400000D03*
X116000000Y-73600000D03*
X116000000Y-75400000D03*
D14*
X114100000Y-83200000D03*
X115900000Y-83200000D03*
X114100000Y-66200000D03*
X115900000Y-66200000D03*
D12*
X114000000Y-90600000D03*
X114000000Y-92400000D03*
X114000000Y-73600000D03*
X114000000Y-75400000D03*
D14*
X125500000Y-113900000D03*
X123700000Y-113900000D03*
X129000000Y-113900000D03*
X127200000Y-113900000D03*
X125500000Y-117900000D03*
X123700000Y-117900000D03*
D12*
X103400000Y-94300000D03*
X103400000Y-96100000D03*
D14*
X108100000Y-117300000D03*
X109900000Y-117300000D03*
D12*
X106000000Y-90600000D03*
X106000000Y-92400000D03*
X106000000Y-73600000D03*
X106000000Y-75400000D03*
D14*
X105900000Y-83200000D03*
X104100000Y-83200000D03*
X105900000Y-66200000D03*
X104100000Y-66200000D03*
D12*
X108000000Y-90600000D03*
X108000000Y-92400000D03*
X108000000Y-73600000D03*
X108000000Y-75400000D03*
D14*
X100100000Y-99200000D03*
X98300000Y-99200000D03*
D12*
X102000000Y-90600000D03*
X102000000Y-92400000D03*
X102000000Y-73600000D03*
X102000000Y-75400000D03*
D14*
X100100000Y-83200000D03*
X101900000Y-83200000D03*
X100100000Y-66200000D03*
X101900000Y-66200000D03*
D12*
X100000000Y-90600000D03*
X100000000Y-92400000D03*
X100000000Y-73600000D03*
X100000000Y-75400000D03*
X92000000Y-90600000D03*
X92000000Y-92400000D03*
X92000000Y-73600000D03*
X92000000Y-75400000D03*
D14*
X91900000Y-83200000D03*
X90100000Y-83200000D03*
X91900000Y-66200000D03*
X90100000Y-66200000D03*
D12*
X94000000Y-90600000D03*
X94000000Y-92400000D03*
X94000000Y-73600000D03*
X94000000Y-75400000D03*
X88000000Y-90600000D03*
X88000000Y-92400000D03*
X88000000Y-73600000D03*
X88000000Y-75400000D03*
D14*
X86100000Y-83200000D03*
X87900000Y-83200000D03*
X86100000Y-66200000D03*
X87900000Y-66200000D03*
D12*
X86000000Y-90600000D03*
X86000000Y-92400000D03*
X86000000Y-73600000D03*
X86000000Y-75400000D03*
X186000000Y-77000000D03*
X186000000Y-78800000D03*
X186000000Y-58900000D03*
X186000000Y-60700000D03*
X194000000Y-77000000D03*
X194000000Y-78800000D03*
X194000000Y-58900000D03*
X194000000Y-60700000D03*
X194000000Y-86000000D03*
X194000000Y-87800000D03*
X194000000Y-67900000D03*
X194000000Y-69700000D03*
X186000000Y-87800000D03*
X186000000Y-86000000D03*
D14*
X161300000Y-106600000D03*
X159500000Y-106600000D03*
D12*
X172000000Y-77000000D03*
X172000000Y-78800000D03*
X172000000Y-58900000D03*
X172000000Y-60700000D03*
X180000000Y-77000000D03*
X180000000Y-78800000D03*
X180000000Y-58900000D03*
X180000000Y-60700000D03*
X164100000Y-100300000D03*
X164100000Y-102100000D03*
X180000000Y-86000000D03*
X180000000Y-87800000D03*
X180000000Y-67900000D03*
X180000000Y-69700000D03*
X172000000Y-87800000D03*
X172000000Y-86000000D03*
X172000000Y-69700000D03*
X172000000Y-67900000D03*
X166800000Y-95900000D03*
X166800000Y-97700000D03*
X158000000Y-77000000D03*
X158000000Y-78800000D03*
X158000000Y-58900000D03*
X158000000Y-60700000D03*
X166000000Y-77000000D03*
X166000000Y-78800000D03*
X166000000Y-58900000D03*
X166000000Y-60700000D03*
D14*
X170856250Y-97543750D03*
X169056250Y-97543750D03*
D12*
X166000000Y-86000000D03*
X166000000Y-87800000D03*
X166000000Y-67900000D03*
X166000000Y-69700000D03*
X158000000Y-87800000D03*
X158000000Y-86000000D03*
X158000000Y-69700000D03*
X158000000Y-67900000D03*
X173100000Y-95900000D03*
X173100000Y-97700000D03*
X144000000Y-77000000D03*
X144000000Y-78800000D03*
X144000000Y-58900000D03*
X144000000Y-60700000D03*
X152000000Y-77000000D03*
X152000000Y-78800000D03*
X152000000Y-58900000D03*
X152000000Y-60700000D03*
X176100000Y-100300000D03*
X176100000Y-102100000D03*
X152000000Y-86000000D03*
X152000000Y-87800000D03*
X152000000Y-67900000D03*
X152000000Y-69700000D03*
X144000000Y-87800000D03*
X144000000Y-86000000D03*
X144000000Y-67900000D03*
X144000000Y-69700000D03*
D14*
X163000000Y-104600000D03*
X164800000Y-104600000D03*
D12*
X196000000Y-82300000D03*
X196000000Y-80500000D03*
X196000000Y-64200000D03*
X196000000Y-62400000D03*
X182000000Y-82300000D03*
X182000000Y-80500000D03*
X182000000Y-64200000D03*
X182000000Y-62400000D03*
X168000000Y-82300000D03*
X168000000Y-80500000D03*
X168000000Y-64200000D03*
X168000000Y-62400000D03*
X154000000Y-82300000D03*
X154000000Y-80500000D03*
X154000000Y-64200000D03*
X154000000Y-62400000D03*
X190000000Y-86000000D03*
X190000000Y-87800000D03*
X190000000Y-77000000D03*
X190000000Y-78800000D03*
X192000000Y-67900000D03*
X192000000Y-69700000D03*
X190000000Y-58900000D03*
X190000000Y-60700000D03*
X188000000Y-77000000D03*
X188000000Y-78800000D03*
X188000000Y-58900000D03*
X188000000Y-60700000D03*
X196000000Y-78800000D03*
X196000000Y-77000000D03*
X196000000Y-60700000D03*
X196000000Y-58900000D03*
X192000000Y-78800000D03*
X192000000Y-77000000D03*
X192000000Y-60700000D03*
X192000000Y-58900000D03*
X192000000Y-86000000D03*
X192000000Y-87800000D03*
X188000000Y-87800000D03*
X188000000Y-86000000D03*
X190000000Y-67900000D03*
X190000000Y-69700000D03*
X196000000Y-87800000D03*
X196000000Y-86000000D03*
X196000000Y-69700000D03*
X196000000Y-67900000D03*
X176000000Y-86000000D03*
X176000000Y-87800000D03*
X176000000Y-77000000D03*
X176000000Y-78800000D03*
X178000000Y-67900000D03*
X178000000Y-69700000D03*
X176000000Y-58900000D03*
X176000000Y-60700000D03*
X174000000Y-77000000D03*
X174000000Y-78800000D03*
X174000000Y-58900000D03*
X174000000Y-60700000D03*
D14*
X158600000Y-97100000D03*
X160400000Y-97100000D03*
D12*
X182000000Y-78800000D03*
X182000000Y-77000000D03*
X182000000Y-60700000D03*
X182000000Y-58900000D03*
X178000000Y-78800000D03*
X178000000Y-77000000D03*
X178000000Y-60700000D03*
X178000000Y-58900000D03*
X178000000Y-86000000D03*
X178000000Y-87800000D03*
X174000000Y-87800000D03*
X174000000Y-86000000D03*
X176000000Y-67900000D03*
X176000000Y-69700000D03*
X174000000Y-69700000D03*
X174000000Y-67900000D03*
X182000000Y-87800000D03*
X182000000Y-86000000D03*
X182000000Y-69700000D03*
X182000000Y-67900000D03*
X163100000Y-92100000D03*
X163100000Y-90300000D03*
X162000000Y-86000000D03*
X162000000Y-87800000D03*
X162000000Y-77000000D03*
X162000000Y-78800000D03*
X164000000Y-67900000D03*
X164000000Y-69700000D03*
X162000000Y-58900000D03*
X162000000Y-60700000D03*
X160000000Y-77000000D03*
X160000000Y-78800000D03*
X160000000Y-58900000D03*
X160000000Y-60700000D03*
X168000000Y-78800000D03*
X168000000Y-77000000D03*
X168000000Y-60700000D03*
X168000000Y-58900000D03*
X164000000Y-78800000D03*
X164000000Y-77000000D03*
X164000000Y-60700000D03*
X164000000Y-58900000D03*
X164000000Y-86000000D03*
X164000000Y-87800000D03*
X160000000Y-87800000D03*
X160000000Y-86000000D03*
X162000000Y-67900000D03*
X162000000Y-69700000D03*
X160000000Y-69700000D03*
X160000000Y-67900000D03*
X177000000Y-92100000D03*
X177000000Y-90300000D03*
X168000000Y-87800000D03*
X168000000Y-86000000D03*
X168000000Y-69700000D03*
X168000000Y-67900000D03*
X148000000Y-86000000D03*
X148000000Y-87800000D03*
X148000000Y-77000000D03*
X148000000Y-78800000D03*
X150000000Y-67900000D03*
X150000000Y-69700000D03*
D14*
X181400000Y-97100000D03*
X179600000Y-97100000D03*
D12*
X146000000Y-77000000D03*
X146000000Y-78800000D03*
X146000000Y-58900000D03*
X146000000Y-60700000D03*
X172500000Y-110500000D03*
X172500000Y-108700000D03*
X178500000Y-108700000D03*
X178500000Y-110500000D03*
X176500000Y-110500000D03*
X176500000Y-108700000D03*
D14*
X177500000Y-106500000D03*
X175700000Y-106500000D03*
X177500000Y-104500000D03*
X175700000Y-104500000D03*
D12*
X154000000Y-78800000D03*
X154000000Y-77000000D03*
X154000000Y-60700000D03*
X154000000Y-58900000D03*
X150000000Y-78800000D03*
X150000000Y-77000000D03*
X150000000Y-60700000D03*
X150000000Y-58900000D03*
X150000000Y-86000000D03*
X150000000Y-87800000D03*
X146000000Y-87800000D03*
X146000000Y-86000000D03*
X148000000Y-67900000D03*
X148000000Y-69700000D03*
X146000000Y-69700000D03*
X146000000Y-67900000D03*
X154000000Y-87800000D03*
X154000000Y-86000000D03*
X154000000Y-69700000D03*
X154000000Y-67900000D03*
D14*
X192300000Y-126300000D03*
X190500000Y-126300000D03*
D12*
X195100000Y-104100000D03*
X195100000Y-102300000D03*
D14*
X187900000Y-95100000D03*
X189700000Y-95100000D03*
X132500000Y-109900000D03*
X130700000Y-109900000D03*
D15*
X130830380Y-114099820D03*
D16*
X132549960Y-114099820D03*
X132549960Y-111900180D03*
X130650040Y-111900180D03*
D14*
X127200000Y-117900000D03*
X129000000Y-117900000D03*
X169056250Y-95543750D03*
X170856250Y-95543750D03*
X164800000Y-106600000D03*
X163000000Y-106600000D03*
D12*
X117600000Y-101500000D03*
X117600000Y-99700000D03*
X102400000Y-101500000D03*
X102400000Y-99700000D03*
X101200000Y-111400000D03*
X101200000Y-113200000D03*
D14*
X192800000Y-137700000D03*
X191000000Y-137700000D03*
X190500000Y-124300000D03*
X192300000Y-124300000D03*
X191400000Y-95100000D03*
X193200000Y-95100000D03*
D12*
X153800000Y-97000000D03*
X153800000Y-98800000D03*
D17*
X167250000Y-106725000D03*
D18*
X167750000Y-106700000D03*
X168250000Y-106700000D03*
X168750000Y-106700000D03*
X169250000Y-106700000D03*
X169750000Y-106700000D03*
X170250000Y-106700000D03*
X170750000Y-106700000D03*
X171250000Y-106700000D03*
X171750000Y-106700000D03*
X172250000Y-106700000D03*
D17*
X172750000Y-106725000D03*
D19*
X173425000Y-106050000D03*
D20*
X173400000Y-105550000D03*
X173400000Y-105050000D03*
X173400000Y-104550000D03*
X173400000Y-104050000D03*
X173400000Y-103550000D03*
X173400000Y-103050000D03*
X173400000Y-102550000D03*
X173400000Y-102050000D03*
X173400000Y-101550000D03*
X173400000Y-101050000D03*
D19*
X173425000Y-100525000D03*
D17*
X172750000Y-99875000D03*
D18*
X172250000Y-99900000D03*
X171750000Y-99900000D03*
X171250000Y-99900000D03*
X170750000Y-99900000D03*
X170250000Y-99900000D03*
X169750000Y-99900000D03*
X169250000Y-99900000D03*
X168750000Y-99900000D03*
X168250000Y-99900000D03*
X167750000Y-99900000D03*
D17*
X167250000Y-99875000D03*
D19*
X166575000Y-100550000D03*
D20*
X166600000Y-101050000D03*
X166600000Y-101550000D03*
X166600000Y-102050000D03*
X166600000Y-102550000D03*
X166600000Y-103050000D03*
X166600000Y-103550000D03*
X166600000Y-104050000D03*
X166600000Y-104550000D03*
X166600000Y-105050000D03*
X166600000Y-105550000D03*
D19*
X166575000Y-106050000D03*
D21*
X170000000Y-103300000D03*
D22*
X113750000Y-106600000D03*
D23*
X113250000Y-106650000D03*
X112750000Y-106650000D03*
X112250000Y-106650000D03*
X111750000Y-106650000D03*
X111250000Y-106650000D03*
X110750000Y-106650000D03*
X110250000Y-106650000D03*
X109750000Y-106650000D03*
X109250000Y-106650000D03*
X108750000Y-106650000D03*
X108250000Y-106650000D03*
X107750000Y-106650000D03*
X107250000Y-106650000D03*
X106750000Y-106650000D03*
D22*
X106250000Y-106600000D03*
D24*
X105500000Y-107350000D03*
D25*
X105550000Y-107850000D03*
X105550000Y-108350000D03*
X105550000Y-108850000D03*
X105550000Y-109350000D03*
X105550000Y-109850000D03*
X105550000Y-110350000D03*
X105550000Y-110850000D03*
X105550000Y-111350000D03*
X105550000Y-111850000D03*
X105550000Y-112350000D03*
X105550000Y-112850000D03*
X105550000Y-113350000D03*
X105550000Y-113850000D03*
X105550000Y-114350000D03*
D24*
X105500000Y-114850000D03*
D22*
X106250000Y-115600000D03*
D23*
X106750000Y-115550000D03*
X107250000Y-115550000D03*
X107750000Y-115550000D03*
X108250000Y-115550000D03*
X108750000Y-115550000D03*
X109250000Y-115550000D03*
X109750000Y-115550000D03*
X110250000Y-115550000D03*
X110750000Y-115550000D03*
X111250000Y-115550000D03*
X111750000Y-115550000D03*
X112250000Y-115550000D03*
X112750000Y-115550000D03*
X113250000Y-115550000D03*
D22*
X113750000Y-115600000D03*
D24*
X114500000Y-114850000D03*
D25*
X114450000Y-114350000D03*
X114450000Y-113850000D03*
X114450000Y-113350000D03*
X114450000Y-112850000D03*
X114450000Y-112350000D03*
X114450000Y-111850000D03*
X114450000Y-111350000D03*
X114450000Y-110850000D03*
X114450000Y-110350000D03*
X114450000Y-109850000D03*
X114450000Y-109350000D03*
X114450000Y-108850000D03*
X114450000Y-108350000D03*
X114450000Y-107850000D03*
D24*
X114500000Y-107350000D03*
D26*
X110000000Y-111100000D03*
D14*
X188700000Y-108500000D03*
X190500000Y-108500000D03*
X188700000Y-106500000D03*
X190500000Y-106500000D03*
D12*
X185800000Y-104500000D03*
X185800000Y-102700000D03*
D14*
X135400000Y-55400000D03*
X137200000Y-55400000D03*
X128400000Y-55400000D03*
X130200000Y-55400000D03*
X133700000Y-55400000D03*
X131900000Y-55400000D03*
X126700000Y-55400000D03*
X124900000Y-55400000D03*
X121400000Y-55400000D03*
X123200000Y-55400000D03*
X114400000Y-55400000D03*
X116200000Y-55400000D03*
X119700000Y-55400000D03*
X117900000Y-55400000D03*
X112700000Y-55400000D03*
X110900000Y-55400000D03*
X105600000Y-55400000D03*
X103800000Y-55400000D03*
X100300000Y-55400000D03*
X102100000Y-55400000D03*
X107300000Y-55400000D03*
X109100000Y-55400000D03*
X98600000Y-55400000D03*
X96800000Y-55400000D03*
X91600000Y-55400000D03*
X89800000Y-55400000D03*
X86300000Y-55400000D03*
X88100000Y-55400000D03*
X93300000Y-55400000D03*
X95100000Y-55400000D03*
X84600000Y-55400000D03*
X82800000Y-55400000D03*
X137200000Y-53400000D03*
X135400000Y-53400000D03*
X130200000Y-53400000D03*
X128400000Y-53400000D03*
X137200000Y-57400000D03*
X135400000Y-57400000D03*
X130200000Y-57400000D03*
X128400000Y-57400000D03*
X131900000Y-53400000D03*
X133700000Y-53400000D03*
X124900000Y-53400000D03*
X126700000Y-53400000D03*
X131900000Y-57400000D03*
X133700000Y-57400000D03*
X124900000Y-57400000D03*
X126700000Y-57400000D03*
X123200000Y-53400000D03*
X121400000Y-53400000D03*
X116200000Y-53400000D03*
X114400000Y-53400000D03*
X123200000Y-57400000D03*
X121400000Y-57400000D03*
X116200000Y-57400000D03*
X114400000Y-57400000D03*
X117900000Y-53400000D03*
X119700000Y-53400000D03*
X110900000Y-53400000D03*
X112700000Y-53400000D03*
X117900000Y-57400000D03*
X119700000Y-57400000D03*
X110900000Y-57400000D03*
X112700000Y-57400000D03*
X103800000Y-53400000D03*
X105600000Y-53400000D03*
X102100000Y-53400000D03*
X100300000Y-53400000D03*
X103800000Y-57400000D03*
X105600000Y-57400000D03*
X102100000Y-57400000D03*
X100300000Y-57400000D03*
X109100000Y-53400000D03*
X107300000Y-53400000D03*
X96800000Y-53400000D03*
X98600000Y-53400000D03*
X109100000Y-57400000D03*
X107300000Y-57400000D03*
X96800000Y-57400000D03*
X98600000Y-57400000D03*
X89800000Y-53400000D03*
X91600000Y-53400000D03*
X88100000Y-53400000D03*
X86300000Y-53400000D03*
X89800000Y-57400000D03*
X91600000Y-57400000D03*
X88100000Y-57400000D03*
X86300000Y-57400000D03*
X95100000Y-53400000D03*
X93300000Y-53400000D03*
X82800000Y-53400000D03*
X84600000Y-53400000D03*
X95100000Y-57400000D03*
X93300000Y-57400000D03*
X82800000Y-57400000D03*
X84600000Y-57400000D03*
D12*
X136000000Y-83600000D03*
X136000000Y-85400000D03*
X136000000Y-66600000D03*
X136000000Y-68400000D03*
X122000000Y-83600000D03*
X122000000Y-85400000D03*
X122000000Y-66600000D03*
X122000000Y-68400000D03*
X108000000Y-83600000D03*
X108000000Y-85400000D03*
X108000000Y-66600000D03*
X108000000Y-68400000D03*
X94000000Y-66600000D03*
X94000000Y-68400000D03*
X94000000Y-83600000D03*
X94000000Y-85400000D03*
X186000000Y-82500000D03*
X186000000Y-84300000D03*
X186000000Y-64400000D03*
X186000000Y-66200000D03*
X172000000Y-82500000D03*
X172000000Y-84300000D03*
X172000000Y-64400000D03*
X172000000Y-66200000D03*
X158000000Y-82500000D03*
X158000000Y-84300000D03*
X158000000Y-64400000D03*
X158000000Y-66200000D03*
X144000000Y-82500000D03*
X144000000Y-84300000D03*
X144000000Y-64400000D03*
X144000000Y-66200000D03*
X148000000Y-58900000D03*
X148000000Y-60700000D03*
D14*
X137900000Y-94200000D03*
X139700000Y-94200000D03*
D12*
X140300000Y-96100000D03*
X140300000Y-97900000D03*
X140300000Y-99800000D03*
X140300000Y-101600000D03*
D27*
X195800000Y-92600000D03*
X188180000Y-92600000D03*
D13*
X140000000Y-45800000D03*
D28*
X195700000Y-100400300D03*
X195700000Y-95599700D03*
D27*
X92200000Y-118000000D03*
X92200000Y-110380000D03*
D29*
X133495000Y-39500000D03*
X86505000Y-39500000D03*
D30*
X93490000Y-40940000D03*
D31*
X96284000Y-40940000D03*
X98951000Y-40940000D03*
X101745000Y-40940000D03*
X104539000Y-40940000D03*
X107333000Y-40940000D03*
X110000000Y-40940000D03*
X112794000Y-40940000D03*
X115588000Y-40940000D03*
X118382000Y-40940000D03*
X121049000Y-40940000D03*
X123843000Y-40940000D03*
X126637000Y-40940000D03*
X95064800Y-38100000D03*
X97604800Y-38100000D03*
X100398800Y-38100000D03*
X103142000Y-38100000D03*
X105885200Y-38100000D03*
X108679200Y-38100000D03*
X111422400Y-38100000D03*
X114165600Y-38100000D03*
X117010400Y-38100000D03*
X119702800Y-38100000D03*
X122446000Y-38100000D03*
X125240000Y-38100000D03*
D29*
X193495000Y-39500000D03*
X146505000Y-39500000D03*
D30*
X153490000Y-40940000D03*
D31*
X156284000Y-40940000D03*
X158951000Y-40940000D03*
X161745000Y-40940000D03*
X164539000Y-40940000D03*
X167333000Y-40940000D03*
X170000000Y-40940000D03*
X172794000Y-40940000D03*
X175588000Y-40940000D03*
X178382000Y-40940000D03*
X181049000Y-40940000D03*
X183843000Y-40940000D03*
X186637000Y-40940000D03*
X155064800Y-38100000D03*
X157604800Y-38100000D03*
X160398800Y-38100000D03*
X163142000Y-38100000D03*
X165885200Y-38100000D03*
X168679200Y-38100000D03*
X171422400Y-38100000D03*
X174165600Y-38100000D03*
X177010400Y-38100000D03*
X179702800Y-38100000D03*
X182446000Y-38100000D03*
X185240000Y-38100000D03*
D14*
X130700000Y-107900000D03*
X132500000Y-107900000D03*
X127200000Y-105900000D03*
X129000000Y-105900000D03*
X123700000Y-107900000D03*
X125500000Y-107900000D03*
X179200000Y-106500000D03*
X181000000Y-106500000D03*
D12*
X180500000Y-110500000D03*
X180500000Y-108700000D03*
X170500000Y-108700000D03*
X170500000Y-110500000D03*
X182500000Y-108700000D03*
X182500000Y-110500000D03*
X174500000Y-110500000D03*
X174500000Y-108700000D03*
D32*
X179370000Y-134200000D03*
D33*
X179370000Y-136740000D03*
X176830000Y-134200000D03*
X176830000Y-136740000D03*
X174290000Y-134200000D03*
X174290000Y-136740000D03*
X171750000Y-134200000D03*
X171750000Y-136740000D03*
X169210000Y-134200000D03*
X169210000Y-136740000D03*
X166670000Y-134200000D03*
X166670000Y-136740000D03*
X164130000Y-134200000D03*
X164130000Y-136740000D03*
X161590000Y-134200000D03*
X161590000Y-136740000D03*
X159050000Y-134200000D03*
X159050000Y-136740000D03*
X156510000Y-134200000D03*
X156510000Y-136740000D03*
X153970000Y-134200000D03*
X153970000Y-136740000D03*
X151430000Y-134200000D03*
X151430000Y-136740000D03*
X148890000Y-134200000D03*
X148890000Y-136740000D03*
X146350000Y-134200000D03*
X146350000Y-136740000D03*
X143810000Y-134200000D03*
X143810000Y-136740000D03*
X141270000Y-134200000D03*
X141270000Y-136740000D03*
X138730000Y-134200000D03*
X138730000Y-136740000D03*
X136190000Y-134200000D03*
X136190000Y-136740000D03*
X133650000Y-134200000D03*
X133650000Y-136740000D03*
X131110000Y-134200000D03*
X131110000Y-136740000D03*
X128570000Y-134200000D03*
X128570000Y-136740000D03*
X126030000Y-134200000D03*
X126030000Y-136740000D03*
X123490000Y-134200000D03*
X123490000Y-136740000D03*
X120950000Y-134200000D03*
X120950000Y-136740000D03*
X118410000Y-134200000D03*
X118410000Y-136740000D03*
X115870000Y-134200000D03*
X115870000Y-136740000D03*
X113330000Y-134200000D03*
X113330000Y-136740000D03*
X110790000Y-134200000D03*
X110790000Y-136740000D03*
X108250000Y-134200000D03*
X108250000Y-136740000D03*
X105710000Y-134200000D03*
X105710000Y-136740000D03*
X103170000Y-134200000D03*
X103170000Y-136740000D03*
X100630000Y-134200000D03*
X100630000Y-136740000D03*
D32*
X179370000Y-143860000D03*
D33*
X179370000Y-146400000D03*
X176830000Y-143860000D03*
X176830000Y-146400000D03*
X174290000Y-143860000D03*
X174290000Y-146400000D03*
X171750000Y-143860000D03*
X171750000Y-146400000D03*
X169210000Y-143860000D03*
X169210000Y-146400000D03*
X166670000Y-143860000D03*
X166670000Y-146400000D03*
X164130000Y-143860000D03*
X164130000Y-146400000D03*
X161590000Y-143860000D03*
X161590000Y-146400000D03*
X159050000Y-143860000D03*
X159050000Y-146400000D03*
X156510000Y-143860000D03*
X156510000Y-146400000D03*
X153970000Y-143860000D03*
X153970000Y-146400000D03*
X151430000Y-143860000D03*
X151430000Y-146400000D03*
X148890000Y-143860000D03*
X148890000Y-146400000D03*
X146350000Y-143860000D03*
X146350000Y-146400000D03*
X143810000Y-143860000D03*
X143810000Y-146400000D03*
X141270000Y-143860000D03*
X141270000Y-146400000D03*
X138730000Y-143860000D03*
X138730000Y-146400000D03*
X136190000Y-143860000D03*
X136190000Y-146400000D03*
X133650000Y-143860000D03*
X133650000Y-146400000D03*
X131110000Y-143860000D03*
X131110000Y-146400000D03*
X128570000Y-143860000D03*
X128570000Y-146400000D03*
X126030000Y-143860000D03*
X126030000Y-146400000D03*
X123490000Y-143860000D03*
X123490000Y-146400000D03*
X120950000Y-143860000D03*
X120950000Y-146400000D03*
X118410000Y-143860000D03*
X118410000Y-146400000D03*
X115870000Y-143860000D03*
X115870000Y-146400000D03*
X113330000Y-143860000D03*
X113330000Y-146400000D03*
X110790000Y-143860000D03*
X110790000Y-146400000D03*
X108250000Y-143860000D03*
X108250000Y-146400000D03*
X105710000Y-143860000D03*
X105710000Y-146400000D03*
X103170000Y-143860000D03*
X103170000Y-146400000D03*
X100630000Y-143860000D03*
X100630000Y-146400000D03*
D34*
X83800000Y-121000000D03*
D35*
X87800000Y-115000000D03*
X87800000Y-118000000D03*
X84800000Y-115000000D03*
X84800000Y-118000000D03*
D34*
X83860000Y-112000000D03*
D36*
X133700000Y-88905000D03*
X133700000Y-87635000D03*
X133700000Y-86365000D03*
X133700000Y-85095000D03*
X128300000Y-85095000D03*
X128300000Y-86365000D03*
X128300000Y-87635000D03*
X128300000Y-88905000D03*
X146300000Y-96995000D03*
X146300000Y-98265000D03*
X146300000Y-99535000D03*
X146300000Y-100805000D03*
X151700000Y-100805000D03*
X151700000Y-99535000D03*
X151700000Y-98265000D03*
X151700000Y-96995000D03*
X146300000Y-80495000D03*
X146300000Y-81765000D03*
X146300000Y-83035000D03*
X146300000Y-84305000D03*
X151700000Y-84305000D03*
X151700000Y-83035000D03*
X151700000Y-81765000D03*
X151700000Y-80495000D03*
X160300000Y-62395000D03*
X160300000Y-63665000D03*
X160300000Y-64935000D03*
X160300000Y-66205000D03*
X165700000Y-66205000D03*
X165700000Y-64935000D03*
X165700000Y-63665000D03*
X165700000Y-62395000D03*
X160300000Y-80495000D03*
X160300000Y-81765000D03*
X160300000Y-83035000D03*
X160300000Y-84305000D03*
X165700000Y-84305000D03*
X165700000Y-83035000D03*
X165700000Y-81765000D03*
X165700000Y-80495000D03*
X174300000Y-62395000D03*
X174300000Y-63665000D03*
X174300000Y-64935000D03*
X174300000Y-66205000D03*
X179700000Y-66205000D03*
X179700000Y-64935000D03*
X179700000Y-63665000D03*
X179700000Y-62395000D03*
X174300000Y-80495000D03*
X174300000Y-81765000D03*
X174300000Y-83035000D03*
X174300000Y-84305000D03*
X179700000Y-84305000D03*
X179700000Y-83035000D03*
X179700000Y-81765000D03*
X179700000Y-80495000D03*
X188300000Y-62395000D03*
X188300000Y-63665000D03*
X188300000Y-64935000D03*
X188300000Y-66205000D03*
X193700000Y-66205000D03*
X193700000Y-64935000D03*
X193700000Y-63665000D03*
X193700000Y-62395000D03*
X188300000Y-80495000D03*
X188300000Y-81765000D03*
X188300000Y-83035000D03*
X188300000Y-84305000D03*
X193700000Y-84305000D03*
X193700000Y-83035000D03*
X193700000Y-81765000D03*
X193700000Y-80495000D03*
X91700000Y-71905000D03*
X91700000Y-70635000D03*
X91700000Y-69365000D03*
X91700000Y-68095000D03*
X86300000Y-68095000D03*
X86300000Y-69365000D03*
X86300000Y-70635000D03*
X86300000Y-71905000D03*
X91700000Y-88905000D03*
X91700000Y-87635000D03*
X91700000Y-86365000D03*
X91700000Y-85095000D03*
X86300000Y-85095000D03*
X86300000Y-86365000D03*
X86300000Y-87635000D03*
X86300000Y-88905000D03*
X105700000Y-71905000D03*
X105700000Y-70635000D03*
X105700000Y-69365000D03*
X105700000Y-68095000D03*
X100300000Y-68095000D03*
X100300000Y-69365000D03*
X100300000Y-70635000D03*
X100300000Y-71905000D03*
X105700000Y-88905000D03*
X105700000Y-87635000D03*
X105700000Y-86365000D03*
X105700000Y-85095000D03*
X100300000Y-85095000D03*
X100300000Y-86365000D03*
X100300000Y-87635000D03*
X100300000Y-88905000D03*
X119700000Y-71905000D03*
X119700000Y-70635000D03*
X119700000Y-69365000D03*
X119700000Y-68095000D03*
X114300000Y-68095000D03*
X114300000Y-69365000D03*
X114300000Y-70635000D03*
X114300000Y-71905000D03*
X119700000Y-88905000D03*
X119700000Y-87635000D03*
X119700000Y-86365000D03*
X119700000Y-85095000D03*
X114300000Y-85095000D03*
X114300000Y-86365000D03*
X114300000Y-87635000D03*
X114300000Y-88905000D03*
X133700000Y-71905000D03*
X133700000Y-70635000D03*
X133700000Y-69365000D03*
X133700000Y-68095000D03*
X128300000Y-68095000D03*
X128300000Y-69365000D03*
X128300000Y-70635000D03*
X128300000Y-71905000D03*
X146300000Y-62395000D03*
X146300000Y-63665000D03*
X146300000Y-64935000D03*
X146300000Y-66205000D03*
X151700000Y-66205000D03*
X151700000Y-64935000D03*
X151700000Y-63665000D03*
X151700000Y-62395000D03*
D34*
X190800000Y-121000000D03*
D35*
X194800000Y-115000000D03*
X194800000Y-118000000D03*
X191800000Y-115000000D03*
X191800000Y-118000000D03*
D34*
X190860000Y-112000000D03*
D37*
X131298000Y-98900000D03*
D38*
X137902000Y-98900000D03*
X137902000Y-96614000D03*
X137902000Y-101186000D03*
D39*
X190500000Y-97498000D03*
D40*
X190500000Y-104102000D03*
X192786000Y-104102000D03*
X188214000Y-104102000D03*
D39*
X190500000Y-128698000D03*
D40*
X190500000Y-135302000D03*
X192786000Y-135302000D03*
X188214000Y-135302000D03*
D32*
X94760000Y-48700000D03*
D33*
X94760000Y-46160000D03*
X97300000Y-48700000D03*
X97300000Y-46160000D03*
X99840000Y-48700000D03*
X99840000Y-46160000D03*
X102380000Y-48700000D03*
X102380000Y-46160000D03*
X104920000Y-48700000D03*
X104920000Y-46160000D03*
X107460000Y-48700000D03*
X107460000Y-46160000D03*
X110000000Y-48700000D03*
X110000000Y-46160000D03*
X112540000Y-48700000D03*
X112540000Y-46160000D03*
X115080000Y-48700000D03*
X115080000Y-46160000D03*
X117620000Y-48700000D03*
X117620000Y-46160000D03*
X120160000Y-48700000D03*
X120160000Y-46160000D03*
X122700000Y-48700000D03*
X122700000Y-46160000D03*
X125240000Y-48700000D03*
X125240000Y-46160000D03*
D32*
X154760000Y-48700000D03*
D33*
X154760000Y-46160000D03*
X157300000Y-48700000D03*
X157300000Y-46160000D03*
X159840000Y-48700000D03*
X159840000Y-46160000D03*
X162380000Y-48700000D03*
X162380000Y-46160000D03*
X164920000Y-48700000D03*
X164920000Y-46160000D03*
X167460000Y-48700000D03*
X167460000Y-46160000D03*
X170000000Y-48700000D03*
X170000000Y-46160000D03*
X172540000Y-48700000D03*
X172540000Y-46160000D03*
X175080000Y-48700000D03*
X175080000Y-46160000D03*
X177620000Y-48700000D03*
X177620000Y-46160000D03*
X180160000Y-48700000D03*
X180160000Y-46160000D03*
X182700000Y-48700000D03*
X182700000Y-46160000D03*
X185240000Y-48700000D03*
X185240000Y-46160000D03*
D41*
X85900000Y-63400000D03*
D42*
X85900000Y-61400000D03*
D41*
X140000000Y-89400000D03*
D42*
X140000000Y-91400000D03*
D41*
X140000000Y-83800000D03*
D42*
X140000000Y-85800000D03*
D41*
X140000000Y-78200000D03*
D42*
X140000000Y-80200000D03*
D41*
X140000000Y-67000000D03*
D42*
X140000000Y-69000000D03*
D41*
X140000000Y-72600000D03*
D42*
X140000000Y-74600000D03*
D41*
X140000000Y-61400000D03*
D42*
X140000000Y-63400000D03*
D41*
X179800000Y-74400000D03*
D42*
X179800000Y-72400000D03*
D41*
X179900000Y-101900000D03*
D42*
X179900000Y-99900000D03*
D41*
X173200000Y-93300000D03*
D42*
X173200000Y-91300000D03*
D41*
X166800000Y-93300000D03*
D42*
X166800000Y-91300000D03*
D41*
X160300000Y-101900000D03*
D42*
X160300000Y-99900000D03*
D41*
X85900000Y-80400000D03*
D42*
X85900000Y-78400000D03*
D41*
X92100000Y-63400000D03*
D42*
X92100000Y-61400000D03*
D41*
X92100000Y-80400000D03*
D42*
X92100000Y-78400000D03*
D41*
X99900000Y-63400000D03*
D42*
X99900000Y-61400000D03*
D41*
X99900000Y-80400000D03*
D42*
X99900000Y-78400000D03*
D41*
X106100000Y-63400000D03*
D42*
X106100000Y-61400000D03*
D41*
X106100000Y-80400000D03*
D42*
X106100000Y-78400000D03*
D41*
X113900000Y-80400000D03*
D42*
X113900000Y-78400000D03*
D41*
X120100000Y-63400000D03*
D42*
X120100000Y-61400000D03*
D41*
X120100000Y-80400000D03*
D42*
X120100000Y-78400000D03*
D41*
X127900000Y-80400000D03*
D42*
X127900000Y-78400000D03*
D41*
X134100000Y-63400000D03*
D42*
X134100000Y-61400000D03*
D41*
X134100000Y-80400000D03*
D42*
X134100000Y-78400000D03*
D41*
X151800000Y-56200000D03*
D42*
X151800000Y-54200000D03*
D41*
X151800000Y-74400000D03*
D42*
X151800000Y-72400000D03*
D41*
X146200000Y-56200000D03*
D42*
X146200000Y-54200000D03*
D41*
X146200000Y-74400000D03*
D42*
X146200000Y-72400000D03*
D41*
X165800000Y-56200000D03*
D42*
X165800000Y-54200000D03*
D41*
X165800000Y-74400000D03*
D42*
X165800000Y-72400000D03*
D41*
X160200000Y-56200000D03*
D42*
X160200000Y-54200000D03*
D41*
X160200000Y-74400000D03*
D42*
X160200000Y-72400000D03*
D41*
X179800000Y-56200000D03*
D42*
X179800000Y-54200000D03*
D41*
X174200000Y-56200000D03*
D42*
X174200000Y-54200000D03*
D41*
X174200000Y-74400000D03*
D42*
X174200000Y-72400000D03*
D41*
X193800000Y-56200000D03*
D42*
X193800000Y-54200000D03*
D41*
X193800000Y-74300000D03*
D42*
X193800000Y-72300000D03*
D41*
X188200000Y-56200000D03*
D42*
X188200000Y-54200000D03*
D41*
X188200000Y-74300000D03*
D42*
X188200000Y-72300000D03*
D41*
X113800000Y-96100000D03*
D42*
X111800000Y-96100000D03*
D41*
X99600000Y-103000000D03*
D42*
X97600000Y-103000000D03*
D41*
X106200000Y-96100000D03*
D42*
X108200000Y-96100000D03*
D41*
X120400000Y-103000000D03*
D42*
X122400000Y-103000000D03*
D41*
X113900000Y-63400000D03*
D42*
X113900000Y-61400000D03*
D41*
X127900000Y-63400000D03*
D42*
X127900000Y-61400000D03*
M02*
