G04 #@! TF.FileFunction,Soldermask,Bot*
%FSLAX46Y46*%
G04 Gerber Fmt 4.6, Leading zero omitted, Abs format (unit mm)*
G04 Created by KiCad (PCBNEW 4.0.7) date Thursday, 09. August 2018 'u49' 18:49:35*
%MOMM*%
%LPD*%
G01*
G04 APERTURE LIST*
%ADD10C,0.100000*%
%ADD11C,0.150000*%
%ADD12C,6.000000*%
%ADD13R,5.500000X5.500000*%
%ADD14R,6.550000X6.550000*%
%ADD15C,2.398980*%
%ADD16C,4.210000*%
%ADD17R,1.924000X1.924000*%
%ADD18C,1.924000*%
%ADD19R,2.127200X2.127200*%
%ADD20O,2.127200X2.127200*%
%ADD21C,1.500000*%
%ADD22C,2.000000*%
%ADD23R,1.700000X1.700000*%
%ADD24C,1.700000*%
G04 APERTURE END LIST*
D10*
D11*
X80000000Y-150000000D02*
X80000000Y-30000000D01*
X200000000Y-150000000D02*
X80000000Y-150000000D01*
X200000000Y-30000000D02*
X200000000Y-150000000D01*
X80000000Y-30000000D02*
X200000000Y-30000000D01*
D12*
X85000000Y-45800000D03*
X195000000Y-45800000D03*
X195000000Y-145000000D03*
X85000000Y-145000000D03*
D13*
X170000000Y-103300000D03*
D14*
X110000000Y-111100000D03*
D15*
X195800000Y-92600000D03*
X188180000Y-92600000D03*
D12*
X140000000Y-45800000D03*
D15*
X92200000Y-118000000D03*
X92200000Y-110380000D03*
D16*
X133495000Y-39500000D03*
X86505000Y-39500000D03*
D17*
X93490000Y-40940000D03*
D18*
X96284000Y-40940000D03*
X98951000Y-40940000D03*
X101745000Y-40940000D03*
X104539000Y-40940000D03*
X107333000Y-40940000D03*
X110000000Y-40940000D03*
X112794000Y-40940000D03*
X115588000Y-40940000D03*
X118382000Y-40940000D03*
X121049000Y-40940000D03*
X123843000Y-40940000D03*
X126637000Y-40940000D03*
X95064800Y-38100000D03*
X97604800Y-38100000D03*
X100398800Y-38100000D03*
X103142000Y-38100000D03*
X105885200Y-38100000D03*
X108679200Y-38100000D03*
X111422400Y-38100000D03*
X114165600Y-38100000D03*
X117010400Y-38100000D03*
X119702800Y-38100000D03*
X122446000Y-38100000D03*
X125240000Y-38100000D03*
D16*
X193495000Y-39500000D03*
X146505000Y-39500000D03*
D17*
X153490000Y-40940000D03*
D18*
X156284000Y-40940000D03*
X158951000Y-40940000D03*
X161745000Y-40940000D03*
X164539000Y-40940000D03*
X167333000Y-40940000D03*
X170000000Y-40940000D03*
X172794000Y-40940000D03*
X175588000Y-40940000D03*
X178382000Y-40940000D03*
X181049000Y-40940000D03*
X183843000Y-40940000D03*
X186637000Y-40940000D03*
X155064800Y-38100000D03*
X157604800Y-38100000D03*
X160398800Y-38100000D03*
X163142000Y-38100000D03*
X165885200Y-38100000D03*
X168679200Y-38100000D03*
X171422400Y-38100000D03*
X174165600Y-38100000D03*
X177010400Y-38100000D03*
X179702800Y-38100000D03*
X182446000Y-38100000D03*
X185240000Y-38100000D03*
D19*
X179370000Y-134200000D03*
D20*
X179370000Y-136740000D03*
X176830000Y-134200000D03*
X176830000Y-136740000D03*
X174290000Y-134200000D03*
X174290000Y-136740000D03*
X171750000Y-134200000D03*
X171750000Y-136740000D03*
X169210000Y-134200000D03*
X169210000Y-136740000D03*
X166670000Y-134200000D03*
X166670000Y-136740000D03*
X164130000Y-134200000D03*
X164130000Y-136740000D03*
X161590000Y-134200000D03*
X161590000Y-136740000D03*
X159050000Y-134200000D03*
X159050000Y-136740000D03*
X156510000Y-134200000D03*
X156510000Y-136740000D03*
X153970000Y-134200000D03*
X153970000Y-136740000D03*
X151430000Y-134200000D03*
X151430000Y-136740000D03*
X148890000Y-134200000D03*
X148890000Y-136740000D03*
X146350000Y-134200000D03*
X146350000Y-136740000D03*
X143810000Y-134200000D03*
X143810000Y-136740000D03*
X141270000Y-134200000D03*
X141270000Y-136740000D03*
X138730000Y-134200000D03*
X138730000Y-136740000D03*
X136190000Y-134200000D03*
X136190000Y-136740000D03*
X133650000Y-134200000D03*
X133650000Y-136740000D03*
X131110000Y-134200000D03*
X131110000Y-136740000D03*
X128570000Y-134200000D03*
X128570000Y-136740000D03*
X126030000Y-134200000D03*
X126030000Y-136740000D03*
X123490000Y-134200000D03*
X123490000Y-136740000D03*
X120950000Y-134200000D03*
X120950000Y-136740000D03*
X118410000Y-134200000D03*
X118410000Y-136740000D03*
X115870000Y-134200000D03*
X115870000Y-136740000D03*
X113330000Y-134200000D03*
X113330000Y-136740000D03*
X110790000Y-134200000D03*
X110790000Y-136740000D03*
X108250000Y-134200000D03*
X108250000Y-136740000D03*
X105710000Y-134200000D03*
X105710000Y-136740000D03*
X103170000Y-134200000D03*
X103170000Y-136740000D03*
X100630000Y-134200000D03*
X100630000Y-136740000D03*
D19*
X179370000Y-143860000D03*
D20*
X179370000Y-146400000D03*
X176830000Y-143860000D03*
X176830000Y-146400000D03*
X174290000Y-143860000D03*
X174290000Y-146400000D03*
X171750000Y-143860000D03*
X171750000Y-146400000D03*
X169210000Y-143860000D03*
X169210000Y-146400000D03*
X166670000Y-143860000D03*
X166670000Y-146400000D03*
X164130000Y-143860000D03*
X164130000Y-146400000D03*
X161590000Y-143860000D03*
X161590000Y-146400000D03*
X159050000Y-143860000D03*
X159050000Y-146400000D03*
X156510000Y-143860000D03*
X156510000Y-146400000D03*
X153970000Y-143860000D03*
X153970000Y-146400000D03*
X151430000Y-143860000D03*
X151430000Y-146400000D03*
X148890000Y-143860000D03*
X148890000Y-146400000D03*
X146350000Y-143860000D03*
X146350000Y-146400000D03*
X143810000Y-143860000D03*
X143810000Y-146400000D03*
X141270000Y-143860000D03*
X141270000Y-146400000D03*
X138730000Y-143860000D03*
X138730000Y-146400000D03*
X136190000Y-143860000D03*
X136190000Y-146400000D03*
X133650000Y-143860000D03*
X133650000Y-146400000D03*
X131110000Y-143860000D03*
X131110000Y-146400000D03*
X128570000Y-143860000D03*
X128570000Y-146400000D03*
X126030000Y-143860000D03*
X126030000Y-146400000D03*
X123490000Y-143860000D03*
X123490000Y-146400000D03*
X120950000Y-143860000D03*
X120950000Y-146400000D03*
X118410000Y-143860000D03*
X118410000Y-146400000D03*
X115870000Y-143860000D03*
X115870000Y-146400000D03*
X113330000Y-143860000D03*
X113330000Y-146400000D03*
X110790000Y-143860000D03*
X110790000Y-146400000D03*
X108250000Y-143860000D03*
X108250000Y-146400000D03*
X105710000Y-143860000D03*
X105710000Y-146400000D03*
X103170000Y-143860000D03*
X103170000Y-146400000D03*
X100630000Y-143860000D03*
X100630000Y-146400000D03*
D21*
X83800000Y-121000000D03*
D22*
X87800000Y-115000000D03*
X87800000Y-118000000D03*
X84800000Y-115000000D03*
X84800000Y-118000000D03*
D21*
X83860000Y-112000000D03*
X190800000Y-121000000D03*
D22*
X194800000Y-115000000D03*
X194800000Y-118000000D03*
X191800000Y-115000000D03*
X191800000Y-118000000D03*
D21*
X190860000Y-112000000D03*
D19*
X94760000Y-48700000D03*
D20*
X94760000Y-46160000D03*
X97300000Y-48700000D03*
X97300000Y-46160000D03*
X99840000Y-48700000D03*
X99840000Y-46160000D03*
X102380000Y-48700000D03*
X102380000Y-46160000D03*
X104920000Y-48700000D03*
X104920000Y-46160000D03*
X107460000Y-48700000D03*
X107460000Y-46160000D03*
X110000000Y-48700000D03*
X110000000Y-46160000D03*
X112540000Y-48700000D03*
X112540000Y-46160000D03*
X115080000Y-48700000D03*
X115080000Y-46160000D03*
X117620000Y-48700000D03*
X117620000Y-46160000D03*
X120160000Y-48700000D03*
X120160000Y-46160000D03*
X122700000Y-48700000D03*
X122700000Y-46160000D03*
X125240000Y-48700000D03*
X125240000Y-46160000D03*
D19*
X154760000Y-48700000D03*
D20*
X154760000Y-46160000D03*
X157300000Y-48700000D03*
X157300000Y-46160000D03*
X159840000Y-48700000D03*
X159840000Y-46160000D03*
X162380000Y-48700000D03*
X162380000Y-46160000D03*
X164920000Y-48700000D03*
X164920000Y-46160000D03*
X167460000Y-48700000D03*
X167460000Y-46160000D03*
X170000000Y-48700000D03*
X170000000Y-46160000D03*
X172540000Y-48700000D03*
X172540000Y-46160000D03*
X175080000Y-48700000D03*
X175080000Y-46160000D03*
X177620000Y-48700000D03*
X177620000Y-46160000D03*
X180160000Y-48700000D03*
X180160000Y-46160000D03*
X182700000Y-48700000D03*
X182700000Y-46160000D03*
X185240000Y-48700000D03*
X185240000Y-46160000D03*
D23*
X85900000Y-63400000D03*
D24*
X85900000Y-61400000D03*
D23*
X140000000Y-89400000D03*
D24*
X140000000Y-91400000D03*
D23*
X140000000Y-83800000D03*
D24*
X140000000Y-85800000D03*
D23*
X140000000Y-78200000D03*
D24*
X140000000Y-80200000D03*
D23*
X140000000Y-67000000D03*
D24*
X140000000Y-69000000D03*
D23*
X140000000Y-72600000D03*
D24*
X140000000Y-74600000D03*
D23*
X140000000Y-61400000D03*
D24*
X140000000Y-63400000D03*
D23*
X179800000Y-74400000D03*
D24*
X179800000Y-72400000D03*
D23*
X179900000Y-101900000D03*
D24*
X179900000Y-99900000D03*
D23*
X173200000Y-93300000D03*
D24*
X173200000Y-91300000D03*
D23*
X166800000Y-93300000D03*
D24*
X166800000Y-91300000D03*
D23*
X160300000Y-101900000D03*
D24*
X160300000Y-99900000D03*
D23*
X85900000Y-80400000D03*
D24*
X85900000Y-78400000D03*
D23*
X92100000Y-63400000D03*
D24*
X92100000Y-61400000D03*
D23*
X92100000Y-80400000D03*
D24*
X92100000Y-78400000D03*
D23*
X99900000Y-63400000D03*
D24*
X99900000Y-61400000D03*
D23*
X99900000Y-80400000D03*
D24*
X99900000Y-78400000D03*
D23*
X106100000Y-63400000D03*
D24*
X106100000Y-61400000D03*
D23*
X106100000Y-80400000D03*
D24*
X106100000Y-78400000D03*
D23*
X113900000Y-80400000D03*
D24*
X113900000Y-78400000D03*
D23*
X120100000Y-63400000D03*
D24*
X120100000Y-61400000D03*
D23*
X120100000Y-80400000D03*
D24*
X120100000Y-78400000D03*
D23*
X127900000Y-80400000D03*
D24*
X127900000Y-78400000D03*
D23*
X134100000Y-63400000D03*
D24*
X134100000Y-61400000D03*
D23*
X134100000Y-80400000D03*
D24*
X134100000Y-78400000D03*
D23*
X151800000Y-56200000D03*
D24*
X151800000Y-54200000D03*
D23*
X151800000Y-74400000D03*
D24*
X151800000Y-72400000D03*
D23*
X146200000Y-56200000D03*
D24*
X146200000Y-54200000D03*
D23*
X146200000Y-74400000D03*
D24*
X146200000Y-72400000D03*
D23*
X165800000Y-56200000D03*
D24*
X165800000Y-54200000D03*
D23*
X165800000Y-74400000D03*
D24*
X165800000Y-72400000D03*
D23*
X160200000Y-56200000D03*
D24*
X160200000Y-54200000D03*
D23*
X160200000Y-74400000D03*
D24*
X160200000Y-72400000D03*
D23*
X179800000Y-56200000D03*
D24*
X179800000Y-54200000D03*
D23*
X174200000Y-56200000D03*
D24*
X174200000Y-54200000D03*
D23*
X174200000Y-74400000D03*
D24*
X174200000Y-72400000D03*
D23*
X193800000Y-56200000D03*
D24*
X193800000Y-54200000D03*
D23*
X193800000Y-74300000D03*
D24*
X193800000Y-72300000D03*
D23*
X188200000Y-56200000D03*
D24*
X188200000Y-54200000D03*
D23*
X188200000Y-74300000D03*
D24*
X188200000Y-72300000D03*
D23*
X113800000Y-96100000D03*
D24*
X111800000Y-96100000D03*
D23*
X99600000Y-103000000D03*
D24*
X97600000Y-103000000D03*
D23*
X106200000Y-96100000D03*
D24*
X108200000Y-96100000D03*
D23*
X120400000Y-103000000D03*
D24*
X122400000Y-103000000D03*
D23*
X113900000Y-63400000D03*
D24*
X113900000Y-61400000D03*
D23*
X127900000Y-63400000D03*
D24*
X127900000Y-61400000D03*
M02*
