M48
;DRILL file {KiCad 4.0.7} date Thursday, 09. August 2018 'u49' 18:49:43
;FORMAT={-:-/ absolute / metric / decimal}
FMAT,2
METRIC,TZ
T1C0.300
T2C0.800
T3C1.001
T4C1.016
T5C1.100
T6C3.048
T7C3.200
T8C4.000
T9C1.100
%
G90
G05
M71
T1
X82.8Y-55.4
X82.8Y-57.4
X82.8Y-75.6
X82.8Y-77.9
X82.8Y-95.7
X82.824Y-93.376
X84.Y-70.1
X84.Y-73.6
X84.Y-87.1
X84.Y-90.6
X85.3Y-59.4
X85.3Y-60.2
X86.9Y-59.4
X86.9Y-60.2
X87.4Y-93.409
X88.1Y-55.4
X88.1Y-57.4
X88.6Y-93.409
X89.8Y-55.4
X89.8Y-57.4
X90.Y-69.4
X90.Y-73.6
X90.Y-86.4
X90.Y-90.6
X91.7Y-69.365
X91.7Y-86.365
X92.1Y-76.85
X94.Y-66.6
X94.Y-83.6
X94.385Y-62.4
X94.4Y-60.2
X94.4Y-79.4
X95.1Y-55.4
X95.1Y-57.4
X95.2Y-75.226
X95.2Y-77.6
X95.2Y-59.4
X96.8Y-55.4
X96.8Y-57.4
X96.8Y-60.2
X96.8Y-75.6
X96.8Y-77.9
X96.8Y-59.4
X97.6Y-62.4
X97.6Y-79.4
X98.Y-70.1
X98.Y-73.6
X98.Y-87.1
X98.Y-90.6
X99.3Y-59.4
X99.3Y-60.2
X99.6Y-105.
X101.Y-59.4
X101.Y-60.2
X101.1Y-97.1
X101.1Y-98.7
X101.2Y-113.2
X101.2Y-116.7
X102.1Y-55.4
X102.1Y-57.4
X102.4Y-99.7
X102.4Y-108.5
X103.2Y-113.2
X103.2Y-116.7
X103.8Y-55.4
X103.8Y-57.4
X104.Y-73.6
X104.Y-86.4
X104.Y-90.6
X104.025Y-69.4
X104.282Y-118.
X104.658Y-110.861
X104.756Y-116.494
X105.2Y-103.2
X105.5Y-115.6
X105.7Y-69.365
X105.7Y-86.365
X106.1Y-76.85
X108.Y-66.6
X108.Y-83.6
X108.4Y-60.2
X108.4Y-62.4
X108.4Y-79.4
X108.4Y-103.2
X108.6Y-94.3
X109.1Y-55.4
X109.1Y-57.4
X109.2Y-59.4
X109.2Y-75.226
X109.2Y-77.6
X109.443Y-88.857
X109.85Y-92.1
X110.8Y-59.4
X110.8Y-60.2
X110.8Y-75.5
X110.807Y-77.807
X110.9Y-55.4
X110.9Y-57.4
X111.45Y-94.3
X111.6Y-62.4
X111.6Y-103.2
X111.607Y-79.4
X112.Y-70.1
X112.Y-73.6
X112.Y-87.1
X112.Y-90.6
X113.3Y-59.4
X113.3Y-60.2
X114.8Y-103.2
X115.Y-59.4
X115.Y-60.2
X115.332Y-110.85
X115.4Y-112.25
X116.2Y-55.4
X116.2Y-57.4
X116.487Y-107.287
X116.6Y-94.3
X116.916Y-93.148
X117.6Y-99.7
X117.6Y-101.5
X117.9Y-51.5
X117.9Y-52.7
X117.9Y-55.4
X117.9Y-57.4
X118.Y-69.4
X118.Y-73.6
X118.Y-86.4
X118.Y-90.6
X118.2Y-93.429
X118.6Y-94.814
X118.76Y-96.76
X119.6Y-101.5
X119.7Y-69.365
X119.7Y-86.365
X119.891Y-97.891
X122.Y-66.6
X122.Y-83.6
X122.4Y-60.2
X122.4Y-62.4
X122.4Y-79.4
X122.4Y-118.8
X122.4Y-121.2
X123.2Y-59.4
X123.2Y-55.4
X123.2Y-57.4
X123.2Y-77.6
X123.209Y-75.226
X123.7Y-115.9
X123.7Y-117.9
X124.3Y-94.2
X124.3Y-97.9
X124.8Y-77.9
X124.809Y-59.4
X124.809Y-60.2
X124.809Y-75.5
X124.9Y-55.4
X124.9Y-57.4
X125.5Y-107.9
X125.5Y-109.9
X125.5Y-111.9
X125.5Y-113.9
X125.5Y-115.9
X125.5Y-117.9
X125.6Y-79.4
X125.609Y-62.4
X125.9Y-94.2
X125.9Y-97.9
X126.Y-70.1
X126.Y-73.6
X126.Y-87.1
X126.Y-90.6
X127.2Y-117.9
X127.3Y-59.4
X127.3Y-60.2
X128.7Y-120.8
X129.Y-113.9
X129.Y-115.9
X129.Y-117.9
X129.1Y-59.4
X129.1Y-60.2
X130.093Y-120.4
X130.1Y-118.2
X130.2Y-55.4
X130.2Y-57.4
X130.4Y-116.2
X130.4Y-117.
X130.7Y-109.9
X130.83Y-114.1
X130.893Y-118.8
X130.893Y-120.
X131.9Y-51.7
X131.9Y-52.9
X131.9Y-55.4
X131.9Y-57.4
X132.Y-69.4
X132.Y-73.6
X132.Y-86.4
X132.Y-90.6
X132.5Y-107.9
X132.5Y-109.9
X133.7Y-69.365
X133.7Y-86.365
X133.8Y-108.9
X136.Y-66.6
X136.Y-83.6
X136.3Y-65.2
X136.4Y-60.2
X136.4Y-101.2
X137.2Y-59.4
X137.2Y-75.226
X137.2Y-55.4
X137.2Y-57.4
X137.207Y-77.507
X138.8Y-59.4
X138.8Y-60.2
X139.6Y-65.2
X139.7Y-94.2
X140.3Y-102.6
X140.4Y-87.7
X141.2Y-94.2
X141.4Y-96.1
X142.Y-53.
X142.Y-55.2
X142.Y-69.7
X142.8Y-71.1
X142.8Y-73.3
X142.8Y-86.
X143.6Y-53.
X143.6Y-55.2
X143.6Y-74.1
X144.Y-60.7
X144.Y-64.4
X144.Y-69.7
X144.Y-78.8
X144.Y-82.5
X146.Y-60.7
X146.Y-78.8
X146.2Y-51.4
X149.Y-57.9
X149.Y-59.8
X149.Y-76.
X149.Y-77.9
X151.776Y-50.776
X152.Y-58.9
X152.Y-77.
X153.8Y-99.8
X154.Y-58.9
X154.Y-64.2
X154.Y-67.9
X154.Y-77.
X154.Y-82.3
X154.4Y-74.
X154.4Y-55.2
X155.2Y-86.
X155.2Y-52.2
X155.2Y-53.
X155.2Y-69.526
X155.207Y-71.807
X156.5Y-116.1
X156.5Y-120.2
X156.6Y-95.8
X156.8Y-73.4
X156.8Y-52.2
X156.8Y-71.137
X157.6Y-74.
X157.6Y-53.
X157.6Y-55.2
X158.Y-60.7
X158.Y-64.4
X158.Y-67.9
X158.Y-78.8
X158.Y-82.5
X158.Y-86.
X158.3Y-95.8
X158.5Y-106.6
X160.Y-60.7
X160.Y-78.8
X160.276Y-90.5
X162.Y-104.3
X162.4Y-51.4
X162.4Y-53.8
X162.7Y-90.3
X163.Y-57.9
X163.Y-59.8
X163.Y-76.
X163.Y-77.9
X163.Y-106.6
X163.6Y-51.4
X163.6Y-53.8
X163.8Y-99.3
X165.094Y-108.494
X165.975Y-107.942
X166.Y-58.9
X166.Y-77.
X166.7Y-110.888
X166.8Y-94.9
X167.15Y-109.088
X167.457Y-110.288
X168.Y-58.9
X168.Y-64.2
X168.Y-67.9
X168.Y-77.
X168.Y-82.3
X168.35Y-109.4
X168.398Y-90.1
X168.4Y-55.2
X168.4Y-74.
X169.2Y-52.2
X169.2Y-86.
X169.2Y-53.
X169.2Y-53.
X169.2Y-69.626
X169.207Y-71.907
X169.35Y-107.7
X169.35Y-108.6
X170.Y-90.1
X170.793Y-70.893
X170.8Y-52.2
X170.8Y-73.2
X170.8Y-85.991
X170.856Y-95.544
X170.856Y-97.544
X171.6Y-53.
X171.6Y-55.2
X171.6Y-74.013
X171.7Y-90.1
X172.Y-60.7
X172.Y-64.4
X172.Y-67.9
X172.Y-78.8
X172.Y-82.5
X172.5Y-111.4
X173.1Y-94.9
X174.Y-60.7
X174.Y-78.8
X174.2Y-50.8
X175.3Y-51.4
X175.3Y-53.8
X176.3Y-99.3
X176.5Y-110.5
X177.Y-57.9
X177.Y-59.8
X177.Y-76.
X177.Y-77.9
X177.4Y-90.3
X177.5Y-106.5
X179.5Y-118.2
X179.8Y-90.3
X180.Y-58.9
X180.Y-77.
X180.Y-117.1
X180.5Y-110.5
X180.5Y-112.
X180.6Y-115.
X181.2Y-115.6
X182.Y-58.9
X182.Y-64.2
X182.Y-67.9
X182.Y-77.
X182.Y-82.3
X182.4Y-55.2
X182.4Y-74.
X182.5Y-52.2
X183.2Y-53.
X183.2Y-69.6
X183.2Y-72.
X183.2Y-80.5
X183.2Y-86.
X183.2Y-115.6
X183.2Y-117.1
X183.8Y-115.
X183.9Y-118.2
X184.8Y-52.2
X184.8Y-70.9
X184.8Y-86.
X184.8Y-73.2
X185.6Y-53.
X185.6Y-55.2
X185.6Y-74.
X185.8Y-101.7
X186.Y-60.7
X186.Y-64.4
X186.Y-67.9
X186.Y-78.8
X186.Y-82.5
X186.9Y-95.1
X187.2Y-49.8
X187.2Y-52.2
X188.Y-60.7
X188.Y-78.8
X188.2Y-52.2
X188.214Y-136.9
X190.Y-137.7
X191.Y-57.9
X191.Y-59.8
X191.Y-76.
X191.Y-77.9
X191.6Y-108.5
X193.2Y-94.
X193.3Y-124.3
X193.3Y-126.3
X193.8Y-52.2
X194.Y-58.9
X194.Y-77.
X194.Y-102.3
X196.Y-58.9
X196.Y-64.2
X196.Y-77.
X196.Y-82.3
X197.2Y-69.341
X197.202Y-71.602
T2
X85.9Y-61.4
X85.9Y-63.4
X85.9Y-78.4
X85.9Y-80.4
X92.1Y-61.4
X92.1Y-63.4
X92.1Y-78.4
X92.1Y-80.4
X97.6Y-103.
X99.6Y-103.
X99.9Y-61.4
X99.9Y-63.4
X99.9Y-78.4
X99.9Y-80.4
X106.1Y-61.4
X106.1Y-63.4
X106.1Y-78.4
X106.1Y-80.4
X106.2Y-96.1
X108.2Y-96.1
X111.8Y-96.1
X113.8Y-96.1
X113.9Y-61.4
X113.9Y-63.4
X113.9Y-78.4
X113.9Y-80.4
X120.1Y-61.4
X120.1Y-63.4
X120.1Y-78.4
X120.1Y-80.4
X120.4Y-103.
X122.4Y-103.
X127.9Y-61.4
X127.9Y-63.4
X127.9Y-78.4
X127.9Y-80.4
X134.1Y-61.4
X134.1Y-63.4
X134.1Y-78.4
X134.1Y-80.4
X140.Y-61.4
X140.Y-63.4
X140.Y-67.
X140.Y-69.
X140.Y-72.6
X140.Y-74.6
X140.Y-78.2
X140.Y-80.2
X140.Y-83.8
X140.Y-85.8
X140.Y-89.4
X140.Y-91.4
X146.2Y-54.2
X146.2Y-56.2
X146.2Y-72.4
X146.2Y-74.4
X151.8Y-54.2
X151.8Y-56.2
X151.8Y-72.4
X151.8Y-74.4
X160.2Y-54.2
X160.2Y-56.2
X160.2Y-72.4
X160.2Y-74.4
X160.3Y-99.9
X160.3Y-101.9
X165.8Y-54.2
X165.8Y-56.2
X165.8Y-72.4
X165.8Y-74.4
X166.8Y-91.3
X166.8Y-93.3
X173.2Y-91.3
X173.2Y-93.3
X174.2Y-54.2
X174.2Y-56.2
X174.2Y-72.4
X174.2Y-74.4
X179.8Y-54.2
X179.8Y-56.2
X179.8Y-72.4
X179.8Y-74.4
X179.9Y-99.9
X179.9Y-101.9
X188.2Y-54.2
X188.2Y-56.2
X188.2Y-72.3
X188.2Y-74.3
X193.8Y-54.2
X193.8Y-56.2
X193.8Y-72.3
X193.8Y-74.3
T3
X92.2Y-110.38
X92.2Y-118.
X188.18Y-92.6
X195.8Y-92.6
T4
X93.49Y-40.94
X94.76Y-46.16
X94.76Y-48.7
X95.065Y-38.1
X96.284Y-40.94
X97.3Y-46.16
X97.3Y-48.7
X97.605Y-38.1
X98.951Y-40.94
X99.84Y-46.16
X99.84Y-48.7
X100.399Y-38.1
X100.63Y-134.2
X100.63Y-136.74
X100.63Y-143.86
X100.63Y-146.4
X101.745Y-40.94
X102.38Y-46.16
X102.38Y-48.7
X103.142Y-38.1
X103.17Y-134.2
X103.17Y-136.74
X103.17Y-143.86
X103.17Y-146.4
X104.539Y-40.94
X104.92Y-46.16
X104.92Y-48.7
X105.71Y-134.2
X105.71Y-136.74
X105.71Y-143.86
X105.71Y-146.4
X105.885Y-38.1
X107.333Y-40.94
X107.46Y-46.16
X107.46Y-48.7
X108.25Y-134.2
X108.25Y-136.74
X108.25Y-143.86
X108.25Y-146.4
X108.679Y-38.1
X110.Y-40.94
X110.Y-46.16
X110.Y-48.7
X110.79Y-134.2
X110.79Y-136.74
X110.79Y-143.86
X110.79Y-146.4
X111.422Y-38.1
X112.54Y-46.16
X112.54Y-48.7
X112.794Y-40.94
X113.33Y-134.2
X113.33Y-136.74
X113.33Y-143.86
X113.33Y-146.4
X114.166Y-38.1
X115.08Y-46.16
X115.08Y-48.7
X115.588Y-40.94
X115.87Y-134.2
X115.87Y-136.74
X115.87Y-143.86
X115.87Y-146.4
X117.01Y-38.1
X117.62Y-46.16
X117.62Y-48.7
X118.382Y-40.94
X118.41Y-134.2
X118.41Y-136.74
X118.41Y-143.86
X118.41Y-146.4
X119.703Y-38.1
X120.16Y-46.16
X120.16Y-48.7
X120.95Y-134.2
X120.95Y-136.74
X120.95Y-143.86
X120.95Y-146.4
X121.049Y-40.94
X122.446Y-38.1
X122.7Y-46.16
X122.7Y-48.7
X123.49Y-134.2
X123.49Y-136.74
X123.49Y-143.86
X123.49Y-146.4
X123.843Y-40.94
X125.24Y-38.1
X125.24Y-46.16
X125.24Y-48.7
X126.03Y-134.2
X126.03Y-136.74
X126.03Y-143.86
X126.03Y-146.4
X126.637Y-40.94
X128.57Y-134.2
X128.57Y-136.74
X128.57Y-143.86
X128.57Y-146.4
X131.11Y-134.2
X131.11Y-136.74
X131.11Y-143.86
X131.11Y-146.4
X133.65Y-134.2
X133.65Y-136.74
X133.65Y-143.86
X133.65Y-146.4
X136.19Y-134.2
X136.19Y-136.74
X136.19Y-143.86
X136.19Y-146.4
X138.73Y-134.2
X138.73Y-136.74
X138.73Y-143.86
X138.73Y-146.4
X141.27Y-134.2
X141.27Y-136.74
X141.27Y-143.86
X141.27Y-146.4
X143.81Y-134.2
X143.81Y-136.74
X143.81Y-143.86
X143.81Y-146.4
X146.35Y-134.2
X146.35Y-136.74
X146.35Y-143.86
X146.35Y-146.4
X148.89Y-134.2
X148.89Y-136.74
X148.89Y-143.86
X148.89Y-146.4
X151.43Y-134.2
X151.43Y-136.74
X151.43Y-143.86
X151.43Y-146.4
X153.49Y-40.94
X153.97Y-134.2
X153.97Y-136.74
X153.97Y-143.86
X153.97Y-146.4
X154.76Y-46.16
X154.76Y-48.7
X155.065Y-38.1
X156.284Y-40.94
X156.51Y-134.2
X156.51Y-136.74
X156.51Y-143.86
X156.51Y-146.4
X157.3Y-46.16
X157.3Y-48.7
X157.605Y-38.1
X158.951Y-40.94
X159.05Y-134.2
X159.05Y-136.74
X159.05Y-143.86
X159.05Y-146.4
X159.84Y-46.16
X159.84Y-48.7
X160.399Y-38.1
X161.59Y-134.2
X161.59Y-136.74
X161.59Y-143.86
X161.59Y-146.4
X161.745Y-40.94
X162.38Y-46.16
X162.38Y-48.7
X163.142Y-38.1
X164.13Y-134.2
X164.13Y-136.74
X164.13Y-143.86
X164.13Y-146.4
X164.539Y-40.94
X164.92Y-46.16
X164.92Y-48.7
X165.885Y-38.1
X166.67Y-134.2
X166.67Y-136.74
X166.67Y-143.86
X166.67Y-146.4
X167.333Y-40.94
X167.46Y-46.16
X167.46Y-48.7
X168.679Y-38.1
X169.21Y-134.2
X169.21Y-136.74
X169.21Y-143.86
X169.21Y-146.4
X170.Y-40.94
X170.Y-46.16
X170.Y-48.7
X171.422Y-38.1
X171.75Y-134.2
X171.75Y-136.74
X171.75Y-143.86
X171.75Y-146.4
X172.54Y-46.16
X172.54Y-48.7
X172.794Y-40.94
X174.166Y-38.1
X174.29Y-134.2
X174.29Y-136.74
X174.29Y-143.86
X174.29Y-146.4
X175.08Y-46.16
X175.08Y-48.7
X175.588Y-40.94
X176.83Y-134.2
X176.83Y-136.74
X176.83Y-143.86
X176.83Y-146.4
X177.01Y-38.1
X177.62Y-46.16
X177.62Y-48.7
X178.382Y-40.94
X179.37Y-134.2
X179.37Y-136.74
X179.37Y-143.86
X179.37Y-146.4
X179.703Y-38.1
X180.16Y-46.16
X180.16Y-48.7
X181.049Y-40.94
X182.446Y-38.1
X182.7Y-46.16
X182.7Y-48.7
X183.843Y-40.94
X185.24Y-38.1
X185.24Y-46.16
X185.24Y-48.7
X186.637Y-40.94
T5
X84.8Y-115.
X84.8Y-118.
X87.8Y-115.
X87.8Y-118.
X191.8Y-115.
X191.8Y-118.
X194.8Y-115.
X194.8Y-118.
T6
X86.505Y-39.5
X133.495Y-39.5
X146.505Y-39.5
X193.495Y-39.5
T7
X85.Y-45.8
X85.Y-145.
X140.Y-45.8
X195.Y-45.8
X195.Y-145.
T8
X110.Y-111.1
X170.Y-103.3
T9
X83.8Y-121.
X83.86Y-112.
X190.8Y-121.
X190.86Y-112.
T0
M30
